{"glyphs":{"0":{"ha":818,"x_min":0,"x_max":0,"o":"m 408 679 b 583 419 529 679 583 586 b 407 151 583 253 529 151 b 233 419 289 151 233 253 b 408 679 233 586 288 679 z m 408 853 b 35 419 183 853 35 703 b 408 -19 35 135 174 -19 b 783 419 643 -19 783 135 b 408 853 783 703 638 853 z "},"1":{"ha":639,"x_min":0,"x_max":0,"o":"m 601 0 l 601 168 l 444 168 l 444 833 l 333 833 l 22 735 l 85 576 b 256 651 154 601 207 625 l 256 168 l 53 168 l 53 0 z "},"2":{"ha":803,"x_min":0,"x_max":0,"o":"m 421 688 b 556 582 515 688 556 644 b 317 419 556 508 519 472 b 38 101 122 369 38 292 b 40 0 38 65 38 33 l 754 0 l 754 169 l 449 169 b 208 154 385 169 285 163 b 414 292 217 229 265 257 b 751 575 617 332 751 413 b 422 851 751 764 635 851 b 64 528 186 851 85 725 l 251 506 b 421 688 264 625 315 688 z "},"3":{"ha":789,"x_min":0,"x_max":0,"o":"m 406 -14 b 750 224 651 -14 750 82 b 525 411 750 340 696 394 l 525 428 b 717 624 649 453 717 511 b 401 847 717 772 622 847 b 65 575 185 847 88 743 l 250 558 b 403 690 263 642 294 690 b 532 583 492 690 532 658 b 415 485 532 511 490 485 l 275 485 l 275 349 l 415 349 b 553 247 524 349 553 315 b 407 142 553 182 507 142 b 231 278 282 142 244 193 l 38 256 b 406 -14 58 67 182 -14 z "},"4":{"ha":808,"x_min":0,"x_max":0,"o":"m 782 186 l 782 340 l 678 340 l 678 833 l 433 833 l 26 322 l 26 186 l 488 186 l 488 0 l 678 0 l 678 186 z m 457 340 b 210 325 388 340 299 336 l 203 335 l 475 685 l 488 681 l 488 340 z "},"5":{"ha":794,"x_min":0,"x_max":0,"o":"m 406 140 b 225 260 299 140 250 193 l 39 211 b 404 -14 81 57 197 -14 b 751 258 626 -14 751 69 b 471 511 751 408 663 511 b 258 461 376 511 308 490 l 258 671 b 706 653 367 661 515 653 l 706 833 l 85 833 l 85 388 l 239 328 b 407 376 281 356 336 376 b 557 260 517 376 557 332 b 406 140 557 183 518 140 z "},"6":{"ha":804,"x_min":0,"x_max":0,"o":"m 418 386 b 567 272 529 386 567 340 b 413 144 567 201 535 144 b 249 267 297 144 249 199 b 418 386 249 332 294 386 z m 760 268 b 496 503 760 439 644 503 b 246 343 371 503 283 460 l 229 346 l 229 364 b 413 688 229 590 276 688 b 551 561 507 688 536 642 l 742 582 b 414 850 719 758 644 850 b 40 413 149 850 40 654 b 408 -17 40 88 190 -17 b 760 268 643 -17 760 89 z "},"7":{"ha":725,"x_min":0,"x_max":0,"o":"m 18 656 l 297 656 b 550 671 383 656 474 663 b 214 0 354 503 228 274 l 436 0 b 708 656 449 256 533 474 l 708 833 l 18 833 z "},"8":{"ha":797,"x_min":0,"x_max":0,"o":"m 399 -17 b 757 221 657 -17 757 79 b 540 413 757 325 692 389 l 540 429 b 724 624 658 457 724 513 b 399 850 724 767 629 850 b 74 624 168 850 75 767 b 258 429 74 513 139 456 l 258 413 b 40 221 106 389 40 325 b 399 -17 40 79 142 -17 z m 399 351 b 560 246 526 351 560 307 b 399 142 560 181 510 142 b 238 246 289 142 238 181 b 399 351 238 307 272 351 z m 399 689 b 536 586 496 689 536 654 b 399 481 536 511 486 481 b 261 586 311 481 261 511 b 399 689 261 654 301 689 z "},"9":{"ha":799,"x_min":0,"x_max":0,"o":"m 388 433 b 238 556 286 433 238 482 b 392 689 238 628 275 689 b 553 561 503 689 553 632 b 388 433 553 492 503 433 z m 388 -17 b 761 421 653 -17 761 179 b 389 850 761 746 613 850 b 43 560 161 850 43 742 b 314 317 43 383 160 317 b 557 478 435 317 518 367 l 574 475 b 574 464 574 471 574 468 b 392 146 574 242 526 146 b 229 260 296 146 247 183 l 42 225 b 388 -17 68 75 160 -17 z "},"A":{"ha":832,"x_min":0,"x_max":0,"o":"m 631 0 l 844 0 l 554 833 l 279 833 l -12 0 l 194 0 l 251 185 l 574 185 z m 329 433 b 397 661 353 508 376 586 l 431 661 b 496 433 450 586 472 508 l 528 331 l 297 331 z "},"B":{"ha":806,"x_min":0,"x_max":0,"o":"m 458 343 b 579 246 551 343 579 310 b 464 147 579 186 543 147 l 272 147 l 272 343 z m 438 681 b 553 583 521 681 553 650 b 432 479 553 507 510 479 l 272 479 l 272 681 z m 72 0 l 471 0 b 778 228 690 0 778 92 b 568 413 778 346 721 397 l 568 425 b 743 621 681 450 743 511 b 436 833 743 765 650 833 l 72 833 z "},"C":{"ha":865,"x_min":0,"x_max":0,"o":"m 443 -19 b 828 310 665 -19 803 101 l 639 342 b 442 153 614 218 564 153 b 235 419 297 153 235 254 b 443 678 235 565 296 678 b 635 492 558 678 613 614 l 825 529 b 449 853 800 736 668 853 b 36 419 196 853 36 693 b 443 -19 36 144 185 -19 z "},"D":{"ha":883,"x_min":0,"x_max":0,"o":"m 403 668 b 650 426 579 668 650 603 b 410 164 650 251 583 164 l 272 164 l 272 668 z m 72 0 l 425 0 b 850 426 692 0 850 163 b 428 833 850 688 721 833 l 72 833 z "},"E":{"ha":758,"x_min":0,"x_max":0,"o":"m 71 0 l 700 0 l 700 174 l 272 174 l 272 343 l 667 343 l 667 499 l 272 499 l 272 660 l 701 660 l 701 833 l 71 833 z "},"F":{"ha":711,"x_min":0,"x_max":0,"o":"m 639 267 l 639 440 l 272 440 l 272 650 l 675 650 l 675 833 l 72 833 l 72 0 l 272 0 l 272 267 z "},"G":{"ha":890,"x_min":0,"x_max":0,"o":"m 365 -14 b 629 182 514 -14 593 71 l 646 182 l 646 0 l 829 0 l 829 453 l 442 453 l 442 304 l 642 304 b 447 149 642 226 603 149 b 235 406 293 149 235 244 b 442 678 235 578 290 678 b 628 526 556 678 603 625 l 815 567 b 443 851 782 753 671 851 b 33 406 171 851 33 685 b 365 -14 33 126 175 -14 z "},"H":{"ha":889,"x_min":0,"x_max":0,"o":"m 818 0 l 818 833 l 618 833 l 618 504 l 272 504 l 272 833 l 72 833 l 72 0 l 272 0 l 272 325 l 618 325 l 618 0 z "},"I":{"ha":343,"x_min":0,"x_max":0,"o":"m 272 0 l 272 833 l 72 833 l 72 0 z "},"J":{"ha":439,"x_min":0,"x_max":0,"o":"m 168 251 b 90 163 168 197 144 163 b 22 169 68 163 47 165 l 13 -1 b 125 -11 46 -7 81 -11 b 368 253 299 -11 368 94 l 368 833 l 168 833 z "},"K":{"ha":806,"x_min":0,"x_max":0,"o":"m 579 0 l 813 0 l 813 15 l 474 408 l 804 818 l 804 833 l 576 833 l 328 474 l 272 474 l 272 833 l 72 833 l 72 0 l 272 0 l 272 313 l 331 313 z "},"L":{"ha":657,"x_min":0,"x_max":0,"o":"m 272 833 l 72 833 l 72 0 l 629 0 l 629 179 l 272 179 z "},"M":{"ha":1139,"x_min":0,"x_max":0,"o":"m 256 349 b 254 671 256 451 256 569 l 275 671 b 375 318 301 565 333 449 l 468 44 l 653 44 l 750 313 b 854 671 792 436 826 563 l 875 671 b 867 349 872 571 867 450 l 867 0 l 1067 0 l 1067 833 l 767 833 l 663 518 b 593 254 643 460 615 353 l 569 254 b 500 511 546 353 517 458 l 396 833 l 71 833 l 71 0 l 256 0 z "},"N":{"ha":903,"x_min":0,"x_max":0,"o":"m 567 0 l 832 0 l 832 833 l 647 833 l 647 576 b 664 211 647 478 654 332 l 642 208 b 500 554 608 308 553 451 l 354 833 l 71 833 l 71 0 l 257 0 l 257 251 b 240 653 257 353 249 529 l 263 656 b 397 329 301 549 358 410 z "},"O":{"ha":913,"x_min":0,"x_max":0,"o":"m 456 -19 b 876 419 726 -19 876 150 b 456 853 876 688 719 853 b 35 419 196 853 35 688 b 456 -19 35 150 186 -19 z m 456 153 b 235 419 300 153 235 256 b 456 678 235 575 300 678 b 678 419 613 678 678 575 b 456 153 678 256 613 153 z "},"P":{"ha":764,"x_min":0,"x_max":0,"o":"m 401 664 b 549 536 510 664 549 624 b 404 407 549 449 507 407 l 272 407 l 272 664 z m 426 244 b 746 536 632 244 746 374 b 419 833 746 732 640 833 l 72 833 l 72 0 l 272 0 l 272 244 z "},"Q":{"ha":914,"x_min":0,"x_max":0,"o":"m 456 153 b 235 419 300 153 235 256 b 456 678 235 575 300 678 b 678 419 613 678 678 575 b 456 153 678 256 613 153 z m 456 -19 b 568 -8 496 -19 533 -15 l 639 -129 l 850 -129 l 850 -114 l 729 64 b 876 419 825 140 876 263 b 456 853 876 688 719 853 b 35 419 196 853 35 688 b 456 -19 35 150 186 -19 z "},"R":{"ha":826,"x_min":0,"x_max":0,"o":"m 422 665 b 561 556 522 665 561 633 b 422 443 561 478 519 443 l 272 443 l 272 665 z m 575 0 l 808 0 l 808 15 l 594 313 b 760 563 700 351 760 435 b 436 833 760 743 650 833 l 71 833 l 71 0 l 272 0 l 272 288 l 399 288 z "},"S":{"ha":794,"x_min":0,"x_max":0,"o":"m 407 -19 b 756 238 651 -19 756 78 b 442 501 756 358 700 456 b 254 614 278 531 254 565 b 385 697 254 667 296 697 b 538 569 485 697 518 654 l 736 608 b 394 853 713 751 621 853 b 57 603 167 853 57 760 b 358 339 57 465 128 375 b 554 224 517 313 554 282 b 415 140 554 171 508 140 b 222 286 313 140 242 186 l 32 246 b 407 -19 50 101 140 -18 z "},"T":{"ha":717,"x_min":0,"x_max":0,"o":"m 18 650 l 258 650 l 258 0 l 458 0 l 458 650 l 699 650 l 699 833 l 18 833 z "},"U":{"ha":878,"x_min":0,"x_max":0,"o":"m 442 158 b 272 340 310 158 272 229 l 272 833 l 72 833 l 72 322 b 442 -18 72 103 204 -18 b 808 322 679 -18 808 103 l 808 833 l 607 833 l 607 338 b 442 158 607 226 571 158 z "},"V":{"ha":826,"x_min":0,"x_max":0,"o":"m 549 0 l 839 833 l 633 833 l 499 400 b 432 172 475 325 453 247 l 400 172 b 335 400 381 247 358 325 l 201 833 l -12 833 l 279 0 z "},"W":{"ha":1189,"x_min":0,"x_max":0,"o":"m 526 351 b 578 669 543 447 563 564 l 603 669 b 650 351 617 564 635 449 l 710 0 l 1001 0 l 1200 833 l 994 833 l 929 476 b 879 171 911 369 893 272 l 849 171 b 803 476 835 278 821 378 l 731 833 l 478 833 l 406 476 b 357 171 386 375 371 276 l 326 171 b 275 476 313 274 294 371 l 204 833 l -11 833 l 192 0 l 469 0 z "},"X":{"ha":786,"x_min":0,"x_max":0,"o":"m 561 0 l 783 0 l 783 15 l 533 406 l 778 818 l 778 833 l 568 833 l 417 517 l 394 517 l 229 833 l 8 833 l 8 818 l 253 429 l 4 15 l 4 0 l 214 0 l 375 326 l 397 326 z "},"Y":{"ha":763,"x_min":0,"x_max":0,"o":"m 482 0 l 482 265 l 782 818 l 782 833 l 567 833 l 393 435 l 369 435 l 201 833 l -19 833 l -19 818 l 282 264 l 282 0 z "},"Z":{"ha":807,"x_min":0,"x_max":0,"o":"m 754 183 l 539 183 b 301 164 475 183 385 175 l 293 179 l 749 656 l 749 833 l 60 833 l 60 650 l 244 650 b 488 669 313 650 406 660 l 497 650 l 46 179 l 46 0 l 754 0 z "},"a":{"ha":699,"x_min":0,"x_max":0,"o":"m 306 131 b 210 206 233 131 210 164 b 310 279 210 251 249 279 l 446 279 l 446 253 b 306 131 446 182 392 131 z m 456 0 l 633 0 l 633 418 b 351 675 633 583 551 675 b 56 471 169 675 78 590 l 233 431 b 344 525 246 494 282 525 b 446 418 417 525 446 486 l 446 372 l 274 372 b 31 172 100 372 31 290 b 224 -14 31 43 113 -14 b 439 157 336 -14 406 53 l 456 157 z "},"b":{"ha":742,"x_min":0,"x_max":0,"o":"m 389 147 b 256 300 308 147 256 208 l 256 351 b 390 506 256 446 307 506 b 521 328 481 506 521 449 b 389 147 521 207 481 147 z m 256 892 l 67 892 l 67 0 l 256 0 l 256 172 l 267 172 b 481 -19 300 57 371 -19 b 707 328 622 -19 707 101 b 481 676 707 554 625 676 b 268 492 375 676 303 607 l 256 492 z "},"c":{"ha":715,"x_min":0,"x_max":0,"o":"m 500 390 l 675 424 b 372 676 651 583 568 676 b 35 321 163 676 35 544 b 374 -19 35 96 165 -19 b 676 229 561 -19 654 76 l 503 271 b 372 146 489 203 457 146 b 228 331 275 146 228 214 b 369 511 228 456 282 511 b 500 390 453 511 483 461 z "},"d":{"ha":742,"x_min":0,"x_max":0,"o":"m 353 147 b 219 324 260 147 219 206 b 351 506 219 447 261 506 b 486 349 435 506 486 444 l 486 297 b 353 147 486 206 432 147 z m 486 0 l 675 0 l 675 892 l 486 892 l 486 492 l 474 492 b 263 676 439 607 368 676 b 35 324 118 676 35 553 b 260 -19 35 101 118 -19 b 475 172 369 -19 442 57 l 486 172 z "},"e":{"ha":708,"x_min":0,"x_max":0,"o":"m 367 535 b 497 382 451 535 494 485 l 222 382 b 367 535 232 490 281 535 z m 369 -18 b 663 182 557 -18 633 68 l 504 225 b 371 133 488 175 460 133 b 221 286 281 133 232 181 l 667 286 b 671 375 669 321 671 347 b 372 676 671 557 575 676 b 35 315 158 676 35 543 b 369 -18 35 92 171 -18 z "},"f":{"ha":475,"x_min":0,"x_max":0,"o":"m 306 683 b 390 779 306 750 336 779 b 460 772 414 779 436 776 l 467 903 b 353 915 439 910 408 915 b 117 689 190 915 117 821 l 117 658 l 21 658 l 21 508 l 117 508 l 117 0 l 306 0 l 306 508 l 461 508 l 461 658 l 306 658 z "},"g":{"ha":700,"x_min":0,"x_max":0,"o":"m 336 515 b 465 422 426 515 465 476 b 336 329 465 369 432 329 b 210 422 242 329 210 369 b 336 515 210 475 243 515 z m 344 -112 b 151 -49 186 -112 151 -93 b 244 11 151 -17 186 11 l 468 11 b 543 -43 521 11 543 -11 b 344 -112 543 -89 506 -112 z m 689 -37 b 476 133 689 69 622 133 b 261 129 408 133 333 129 b 203 163 219 129 203 139 b 215 199 203 174 208 186 l 226 217 b 336 206 258 210 296 206 b 625 386 521 206 625 276 b 474 508 625 463 556 493 l 475 524 b 601 517 528 518 569 517 l 674 517 l 674 658 l 340 658 b 42 429 153 658 42 576 b 194 225 42 326 96 257 l 146 200 b 63 106 92 176 63 143 b 164 15 63 60 93 25 l 164 7 b 10 -111 75 -11 10 -51 b 332 -244 10 -193 81 -244 b 689 -37 599 -244 689 -175 z "},"h":{"ha":738,"x_min":0,"x_max":0,"o":"m 256 367 b 388 506 256 449 307 506 b 488 393 456 506 488 460 l 488 0 l 676 0 l 676 446 b 489 676 676 589 614 676 b 267 482 382 676 306 608 l 256 482 l 256 892 l 67 892 l 67 0 l 256 0 z "},"i":{"ha":333,"x_min":0,"x_max":0,"o":"m 265 751 l 265 888 l 68 888 l 68 751 z m 261 0 l 261 658 l 72 658 l 72 0 z "},"j":{"ha":346,"x_min":0,"x_max":0,"o":"m 274 38 l 274 657 l 85 657 l 85 13 b 28 -60 85 -31 71 -60 b -17 -56 13 -60 -1 -58 l -25 -218 b 36 -224 -6 -221 15 -224 b 274 38 210 -224 274 -122 z m 278 751 l 278 888 l 81 888 l 81 751 z "},"k":{"ha":699,"x_min":0,"x_max":0,"o":"m 258 892 l 69 892 l 69 0 l 258 0 l 258 264 l 307 264 l 492 0 l 707 0 l 707 15 l 458 338 l 693 643 l 693 658 l 478 658 l 310 401 l 258 401 z "},"l":{"ha":328,"x_min":0,"x_max":0,"o":"m 258 892 l 69 892 l 69 0 l 258 0 z "},"m":{"ha":1160,"x_min":0,"x_max":0,"o":"m 256 367 b 388 506 256 449 307 506 b 488 393 456 506 488 460 l 488 0 l 676 0 l 676 367 b 807 506 676 449 726 506 b 907 393 876 506 907 460 l 907 0 l 1097 0 l 1097 446 b 903 676 1097 589 1032 676 b 683 479 794 676 719 608 l 668 479 b 486 676 660 603 603 676 b 265 482 382 676 303 610 l 251 482 l 251 658 l 67 658 l 67 0 l 256 0 z "},"n":{"ha":738,"x_min":0,"x_max":0,"o":"m 256 367 b 388 506 256 449 307 506 b 488 393 457 506 488 460 l 488 0 l 676 0 l 676 446 b 486 676 676 589 613 676 b 264 482 383 676 303 610 l 251 482 l 251 658 l 67 658 l 67 0 l 256 0 z "},"o":{"ha":747,"x_min":0,"x_max":0,"o":"m 375 -19 b 713 329 585 -19 713 113 b 375 676 713 549 581 676 b 35 329 165 676 35 549 b 375 -19 35 113 161 -19 z m 374 518 b 524 331 478 518 524 450 b 374 142 524 211 479 142 b 224 331 267 142 224 211 b 374 518 224 450 269 518 z "},"p":{"ha":742,"x_min":0,"x_max":0,"o":"m 389 147 b 256 300 308 147 256 208 l 256 351 b 390 506 256 446 307 506 b 521 328 481 506 521 449 b 389 147 521 207 481 147 z m 707 328 b 481 676 707 554 625 676 b 268 492 375 676 303 607 l 256 492 l 256 658 l 67 658 l 67 -211 l 256 -211 l 256 172 l 267 172 b 481 -19 300 57 371 -19 b 707 328 622 -19 707 101 z "},"q":{"ha":742,"x_min":0,"x_max":0,"o":"m 353 147 b 219 325 261 147 219 206 b 351 506 219 447 261 506 b 486 349 435 506 486 446 l 486 297 b 353 147 486 207 433 147 z m 35 324 b 258 -19 35 101 119 -19 b 475 172 368 -19 442 57 l 486 172 l 486 -217 l 675 -217 l 675 658 l 486 658 l 486 488 l 476 483 b 263 676 443 603 371 676 b 35 324 117 676 35 553 z "},"r":{"ha":488,"x_min":0,"x_max":0,"o":"m 256 0 l 256 293 b 425 449 256 410 293 449 l 464 449 l 464 665 l 444 665 b 261 444 358 665 303 628 l 246 444 l 246 658 l 67 658 l 67 0 z "},"s":{"ha":651,"x_min":0,"x_max":0,"o":"m 336 -19 b 619 186 535 -19 619 58 b 364 400 619 289 569 357 b 228 486 246 424 228 450 b 321 546 228 525 258 546 b 435 451 389 546 419 519 l 603 486 b 325 676 579 601 517 676 b 49 475 139 676 49 601 b 290 264 49 363 110 303 b 438 178 411 240 438 218 b 340 114 436 135 404 114 b 197 224 258 114 214 151 l 28 189 b 336 -19 46 69 114 -19 z "},"t":{"ha":501,"x_min":0,"x_max":0,"o":"m 101 207 b 318 -19 101 82 165 -19 b 474 6 390 -19 424 -10 l 453 175 b 367 158 428 167 396 158 b 290 238 310 158 290 185 l 290 508 l 464 508 l 464 658 l 290 658 l 290 828 l 101 828 l 101 658 l 21 658 l 21 508 l 101 508 z "},"u":{"ha":740,"x_min":0,"x_max":0,"o":"m 489 0 l 674 0 l 674 658 l 483 658 l 483 292 b 353 151 483 208 433 151 b 253 265 283 151 253 197 l 253 658 l 64 658 l 64 213 b 253 -19 64 69 128 -19 b 475 175 357 -19 438 47 l 489 175 z "},"v":{"ha":676,"x_min":0,"x_max":0,"o":"m 465 0 l 688 658 l 488 658 l 418 400 b 354 167 396 321 374 243 l 326 167 b 264 400 307 243 285 319 l 194 658 l -11 658 l 213 0 z "},"w":{"ha":1039,"x_min":0,"x_max":0,"o":"m 635 658 l 422 658 l 368 399 b 322 144 351 317 336 232 l 297 144 b 244 400 283 231 265 310 l 186 658 l -8 658 l 175 0 l 415 0 l 467 283 b 503 515 479 357 493 438 l 526 515 b 563 283 536 436 549 358 l 618 0 l 865 0 l 1047 658 l 861 658 l 811 400 b 760 144 793 310 775 229 l 736 144 b 689 399 722 233 707 317 z "},"x":{"ha":697,"x_min":0,"x_max":0,"o":"m 465 0 l 682 0 l 682 15 l 494 317 l 674 643 l 674 658 l 474 658 l 369 404 l 344 404 l 231 658 l 14 658 l 14 643 l 200 344 l 11 15 l 11 0 l 222 0 l 325 260 l 349 260 z "},"y":{"ha":682,"x_min":0,"x_max":0,"o":"m 117 -233 b 429 -3 282 -233 365 -164 l 689 658 l 486 658 l 425 413 b 365 178 408 342 386 260 l 342 178 b 278 417 321 258 297 343 l 213 658 l 6 658 l 253 8 b 121 -74 222 -61 188 -74 b 36 -64 93 -74 64 -69 l 8 -224 b 117 -233 43 -229 71 -233 z "},"z":{"ha":694,"x_min":0,"x_max":0,"o":"m 464 160 b 265 140 407 160 335 150 l 260 153 l 636 496 l 636 658 l 60 658 l 60 499 l 193 499 b 417 518 256 499 340 507 l 424 503 l 49 163 l 49 0 l 640 0 l 640 160 z "},".":{"ha":272,"x_min":0,"x_max":0,"o":"m 33 199 l 33 0 l 239 0 l 239 199 z "},",":{"ha":274,"x_min":0,"x_max":0,"o":"m 57 210 l -37 -179 l -37 -187 l 101 -187 l 247 210 z "}," ":{"ha":254,"x_min":0,"x_max":0,"o":""}," ":{"ha":236,"x_min":0,"x_max":0,"o":""}}}
